#N canvas 648 204 450 300 10;
#X obj 71 164 noise~;
#X obj 67 265 *~ 0.3;
#X obj 59 201 lop~ 100;
#X obj 277 160 noise~;
#X obj 273 261 *~ 0.3;
#X obj 164 158 noise~;
#X obj 160 259 *~ 0.15;
#X obj 109 313 +~;
#X obj 194 311 +~;
#X obj 311 289 +~;
#X obj 235 364 delwrite~;
#X obj -10 245 delread~;
#X obj -21 153 random 25;
#X obj 251 319 *~ 0.5;
#X obj 167 -15 bng 15 250 50 0 empty empty empty 17 7 0 10 -262144
-1 -1;
#X obj 350 211 osc~ 0.2;
#X obj 355 266 osc~ 0.01;
#X obj 154 226 hip~ 50;
#X obj 152 195 lop~ 250;
#X floatatom 465 40 5 0 0 0 - - -;
#X obj 257 -26 metro 5000;
#X msg 488 71 5000;
#X obj 347 135 +;
#X msg 372 27 130;
#X obj 265 197 lop~;
#X obj 236 125 -;
#X obj 113 107 +;
#X msg 146 77 100;
#X obj 278 127 * 2;
#X msg 251 62 350;
#X obj 465 -13 random 150;
#X obj 478 246 outlet;
#X obj 74 292 lop~;
#X obj 139 289 lop~;
#X obj 214 286 lop~;
#X obj 150 113 * 2;
#X obj 204 72 -;
#X msg 204 27 3000;
#X obj 61 232 hip~ 90;
#X obj 267 228 hip~ 80;
#X obj 101 354 lop~;
#X obj 571 164 vsl 15 128 0 100 0 0 empty empty empty 0 -9 0 10 -262144
-1 -1 0 1;
#X floatatom 443 429 5 0 0 0 - - -;
#X obj 174 356 lop~;
#X msg 559 115 64;
#X obj 108 380 hip~ 5;
#X obj 164 385 hip~ 5;
#X obj 139 418 +~;
#X obj 138 443 *~ 0.5;
#X obj 40 432 *~ 1;
#X obj 223 441 *~ 1;
#N canvas 597 747 450 367 panner 0;
#X floatatom -98 -1080 5 0 0 0 - - -;
#X floatatom -172 -892 5 0 0 0 - - -;
#X floatatom -84 -887 5 0 0 0 - - -;
#X floatatom 7 -897 5 0 0 0 - - -;
#X obj -98 -1052 moses 0.5;
#X obj -45 -1011 - 1;
#X obj -45 -971 * -1;
#X obj 15 -983 * 2;
#X obj -138 -1021 * -2;
#X obj -172 -984 + 2;
#X obj -98 -1105 inlet;
#X obj -172 -849 outlet;
#X obj -84 -848 outlet;
#X obj 5 -847 outlet;
#X obj 102 -1116 inlet;
#X floatatom 103 -1094 5 0 0 0 - - -;
#X obj 102 -1069 * -1;
#X obj 102 -1046 + 1;
#X obj -79 -930 +;
#X obj 21 -927 -;
#X obj -155 -932 -;
#X obj 137 -1004 * 0.5;
#X obj 33 -1063 bng 15 250 50 0 empty empty empty 17 7 0 10 -262144
-1 -1;
#X connect 0 0 4 0;
#X connect 1 0 11 0;
#X connect 2 0 12 0;
#X connect 3 0 13 0;
#X connect 4 0 8 0;
#X connect 4 0 18 0;
#X connect 4 1 5 0;
#X connect 4 1 7 0;
#X connect 5 0 6 0;
#X connect 6 0 18 0;
#X connect 7 0 19 0;
#X connect 8 0 9 0;
#X connect 9 0 20 0;
#X connect 10 0 0 0;
#X connect 10 0 8 0;
#X connect 14 0 15 0;
#X connect 14 0 22 0;
#X connect 15 0 16 0;
#X connect 16 0 17 0;
#X connect 17 0 21 0;
#X connect 17 0 20 1;
#X connect 17 0 19 1;
#X connect 18 0 2 0;
#X connect 19 0 3 0;
#X connect 20 0 1 0;
#X connect 21 0 18 1;
#X connect 22 0 20 0;
#X connect 22 0 18 0;
#X connect 22 0 19 0;
#X restore 420 583 pd panner;
#X obj 394 511 hsl 128 15 0 1 0 0 empty falls_pan panner -2 -8 0 10
-262144 -1 -1 0 1;
#X msg 378 466 0.5;
#X obj 480 401 + 100;
#X obj 479 365 * 100;
#X obj 535 511 hsl 128 15 0 1 0 0 empty falls_width width -2 -8 0 10
-262144 -1 -1 0 1;
#X msg 524 462 1;
#X obj 584 401 bng 15 250 50 0 empty init_falls empty 17 7 0 10 -262144
-1 -1;
#X floatatom 428 475 5 0 0 0 - - init_pan;
#X floatatom 574 474 5 0 0 0 - - init_distance;
#X obj 439 82 pack;
#X msg 234 -63 bng;
#X obj 75 616 dac~;
#X obj 283 -79 loadbang;
#X connect 0 0 2 0;
#X connect 1 0 32 0;
#X connect 2 0 38 0;
#X connect 3 0 24 0;
#X connect 4 0 34 0;
#X connect 5 0 18 0;
#X connect 6 0 33 0;
#X connect 7 0 40 0;
#X connect 8 0 43 0;
#X connect 9 0 13 0;
#X connect 11 0 7 1;
#X connect 12 0 11 0;
#X connect 13 0 8 1;
#X connect 13 0 10 0;
#X connect 15 0 9 0;
#X connect 16 0 9 1;
#X connect 17 0 6 0;
#X connect 18 0 17 0;
#X connect 19 0 61 0;
#X connect 20 0 14 0;
#X connect 20 0 30 0;
#X connect 20 0 12 0;
#X connect 20 0 37 0;
#X connect 20 0 27 0;
#X connect 20 0 29 0;
#X connect 20 0 23 0;
#X connect 21 0 61 1;
#X connect 22 0 24 1;
#X connect 23 0 22 0;
#X connect 23 0 31 0;
#X connect 24 0 39 0;
#X connect 25 0 18 1;
#X connect 26 0 2 1;
#X connect 27 0 26 0;
#X connect 28 0 25 1;
#X connect 29 0 25 0;
#X connect 30 0 19 0;
#X connect 30 0 21 0;
#X connect 32 0 7 0;
#X connect 33 0 7 1;
#X connect 33 0 8 1;
#X connect 34 0 8 0;
#X connect 35 0 26 1;
#X connect 36 0 32 1;
#X connect 36 0 33 1;
#X connect 36 0 34 1;
#X connect 37 0 36 0;
#X connect 38 0 1 0;
#X connect 39 0 4 0;
#X connect 40 0 45 0;
#X connect 41 0 55 0;
#X connect 42 0 40 1;
#X connect 42 0 43 1;
#X connect 43 0 46 0;
#X connect 44 0 41 0;
#X connect 45 0 47 0;
#X connect 45 0 49 0;
#X connect 46 0 47 1;
#X connect 46 0 50 0;
#X connect 47 0 48 0;
#X connect 48 0 63 0;
#X connect 48 0 63 1;
#X connect 49 0 63 0;
#X connect 50 0 63 1;
#X connect 51 0 49 1;
#X connect 51 1 48 1;
#X connect 51 2 50 1;
#X connect 52 0 51 0;
#X connect 53 0 52 0;
#X connect 53 0 59 0;
#X connect 54 0 42 0;
#X connect 55 0 54 0;
#X connect 56 0 51 1;
#X connect 57 0 56 0;
#X connect 57 0 60 0;
#X connect 58 0 53 0;
#X connect 58 0 57 0;
#X connect 62 0 20 0;
#X connect 64 0 20 0;
#X connect 64 0 44 0;
#X connect 64 0 53 0;
#X connect 64 0 57 0;
